<?xml version="1.0" encoding="UTF-8"?>
<level>
  <owner>Fistachka</owner>
  <repo>september</repo>
  <version>v1.0.16</version>
  <next number="1" owner="Fistachka" repo="funtik"/>
  <readme>
    <ru>865d3d38bdda25f28e51f8e63a35e6dbd8c372bd65b04b0fb1b25c4fc8fa4551</ru>
    <en>ab84a8b4c1917f7429865e177f9e409ca26371c7e3abc4b8b9b4fffa9f35869e</en>
  </readme>
  <license>b1b99f5538d1fd3702219bff50c665196dfa42f6ee755c37fe41a6178d6bc6e5</license>
  <exercise number="1">
    <scale>minor</scale>
    <bpm>68</bpm>
    <lowestNote>84</lowestNote>
    <tonalities>6</tonalities>
    <video name="1t.mp4" size="1848017" type="video/mp4" volume="0.5">f699e629f1d1f433c5b10fc408e234342fc4dbc84ba885ab919acae510e531c5</video>
    <notes>
      <note number="1" values="85" ticks="552" durationTicks="39" ppq="96" velocity="0.843"/>
      <note number="2" values="86" ticks="601" durationTicks="22" ppq="96" velocity="0.913"/>
      <note number="3" values="3" ticks="624" durationTicks="49" ppq="96" velocity="0.834"/>
      <note number="4" values="85" ticks="767" durationTicks="26" ppq="96" velocity="0.913"/>
      <note number="5" values="86" ticks="793" durationTicks="25" ppq="96" velocity="0.913"/>
      <note number="6" values="3" ticks="818" durationTicks="68" ppq="96" velocity="0.913"/>
    </notes>
  </exercise>
  <exercise number="2">
    <scale>minor</scale>
    <bpm>68</bpm>
    <lowestNote>84</lowestNote>
    <tonalities>6</tonalities>
    <video name="2t.mp4" size="1081036" type="video/mp4" volume="0.5">bcabb990ea7ed543c5ffd6f510f1bf90586e94c8cfd848562ec8c3766e7daacd</video>
    <notes>
      <note number="1" values="84" ticks="82" durationTicks="45" ppq="96" velocity="0.8"/>
      <note number="2" values="85" ticks="129" durationTicks="26" ppq="96" velocity="0.8"/>
      <note number="3" values="2" ticks="156" durationTicks="83" ppq="96" velocity="0.8"/>
      <note number="4" values="84" ticks="311" durationTicks="26" ppq="96" velocity="0.8"/>
      <note number="5" values="85" ticks="333" durationTicks="27" ppq="96" velocity="0.8"/>
      <note number="6" values="2" ticks="361" durationTicks="88" ppq="96" velocity="0.8"/>
    </notes>
  </exercise>
  <exercise number="3">
    <scale>minor</scale>
    <bpm>68</bpm>
    <lowestNote>85</lowestNote>
    <tonalities>6</tonalities>
    <video name="3t.mp4" size="1734120" type="video/mp4" volume="0.5">15366b96094c465e0bb5dceecb02fe8c283240922364efe892f51b174736e1b9</video>
    <notes>
      <note number="1" values="85" ticks="70" durationTicks="27" ppq="96" velocity="0.843"/>
      <note number="2" values="86" ticks="96" durationTicks="25" ppq="96" velocity="0.906"/>
      <note number="3" values="3" ticks="119" durationTicks="26" ppq="96" velocity="0.906"/>
      <note number="4" values="85" ticks="288" durationTicks="24" ppq="96" velocity="0.906"/>
      <note number="5" values="86" ticks="313" durationTicks="37" ppq="96" velocity="0.906"/>
      <note number="6" values="3" ticks="338" durationTicks="33" ppq="96" velocity="0.906"/>
      <note number="7" values="85" ticks="418" durationTicks="31" ppq="96" velocity="0.906"/>
      <note number="8" values="86" ticks="447" durationTicks="29" ppq="96" velocity="0.906"/>
      <note number="9" values="1" ticks="477" durationTicks="79" ppq="96" velocity="0.906"/>
    </notes>
  </exercise>
  <exercise number="4">
    <scale>minor</scale>
    <bpm>68</bpm>
    <lowestNote>85</lowestNote>
    <tonalities>6</tonalities>
    <video name="4t.mp4" size="953735" type="video/mp4" volume="0.5">f1f16a0aed45f21e6e0247aee4a8f16eae2543e37573073c23c4792696e500da</video>
    <notes>
      <note number="1" values="85" ticks="168" durationTicks="45" ppq="96" velocity="0.795"/>
      <note number="2" values="86" ticks="193" durationTicks="26" ppq="96" velocity="0.795"/>
      <note number="3" values="3" ticks="217" durationTicks="24" ppq="96" velocity="0.795"/>
      <note number="4" values="85" ticks="384" durationTicks="26" ppq="96" velocity="0.795"/>
      <note number="5" values="86" ticks="408" durationTicks="27" ppq="96" velocity="0.795"/>
      <note number="6" values="3" ticks="433" durationTicks="24" ppq="96" velocity="0.795"/>
    </notes>
  </exercise>
  <exercise number="5">
    <scale>minor</scale>
    <bpm>68</bpm>
    <lowestNote>85</lowestNote>
    <tonalities>6</tonalities>
    <video name="5t.mp4" size="480288" type="video/mp4" volume="0.5">6df655eb3c958e023c376a185579590b6d28cd63a976cf4277df79c42c2b62c4</video>
    <notes>
      <note number="1" values="85" ticks="55" durationTicks="45" ppq="96" velocity="0.795"/>
      <note number="2" values="86" ticks="96" durationTicks="26" ppq="96" velocity="0.795"/>
      <note number="3" values="3" ticks="122" durationTicks="24" ppq="96" velocity="0.795"/>
      <note number="4" values="85" ticks="239" durationTicks="26" ppq="96" velocity="0.795"/>
      <note number="5" values="86" ticks="264" durationTicks="27" ppq="96" velocity="0.795"/>
      <note number="6" values="3" ticks="289" durationTicks="24" ppq="96" velocity="0.795"/>
    </notes>
  </exercise>
  <exercise number="6">
    <scale>minor</scale>
    <bpm>68</bpm>
    <lowestNote>85</lowestNote>
    <tonalities>6</tonalities>
    <video name="6t.mp4" size="912860" type="video/mp4" volume="0.5">2966730e7589a322268915a243383df7020a226038939b4f9f0be48b452db457</video>
    <notes>
      <note number="1" values="85" ticks="120" durationTicks="45" ppq="96" velocity="0.795"/>
      <note number="2" values="86" ticks="145" durationTicks="26" ppq="96" velocity="0.795"/>
      <note number="3" values="3" ticks="169" durationTicks="24" ppq="96" velocity="0.795"/>
      <note number="4" values="85" ticks="287" durationTicks="27" ppq="96" velocity="0.795"/>
      <note number="5" values="86" ticks="313" durationTicks="47" ppq="96" velocity="0.795"/>
      <note number="6" values="3" ticks="361" durationTicks="53" ppq="96" velocity="0.795"/>
    </notes>
  </exercise>
  <exercise number="7">
    <scale>minor</scale>
    <bpm>68</bpm>
    <lowestNote>85</lowestNote>
    <tonalities>6</tonalities>
    <video name="7t.mp4" size="1055294" type="video/mp4" volume="0.5">f641a121b71cfe64a2080d79d2b333ac6acdb7b82940740d7472d19df7690278</video>
    <notes>
      <note number="1" values="85" ticks="82" durationTicks="45" ppq="96" velocity="0.795"/>
      <note number="2" values="86" ticks="129" durationTicks="26" ppq="96" velocity="0.795"/>
      <note number="3" values="3,85" ticks="156" durationTicks="37" ppq="96" velocity="0.795"/>
      <note number="4" values="85" ticks="192" durationTicks="55" ppq="96" velocity="0.795"/>
      <note number="5" values="86" ticks="276" durationTicks="37" ppq="96" velocity="0.795"/>
      <note number="6" values="3" ticks="314" durationTicks="68" ppq="96" velocity="0.795"/>
    </notes>
  </exercise>
  <exercise number="8">
    <scale>minor</scale>
    <bpm>68</bpm>
    <lowestNote>85</lowestNote>
    <tonalities>6</tonalities>
    <video name="8t.mp4" size="1347333" type="video/mp4" volume="0.5">1cb6d1759fc4b417a584b78b543b1a294bf530957221e08d0df7df018cd6d810</video>
    <notes>
      <note number="1" values="1" ticks="47" durationTicks="50" ppq="96" velocity="0.843"/>
      <note number="2" values="1" ticks="97" durationTicks="47" ppq="96" velocity="0.906"/>
      <note number="3" values="1" ticks="168" durationTicks="23" ppq="96" velocity="0.906"/>
      <note number="4" values="1" ticks="192" durationTicks="25" ppq="96" velocity="0.906"/>
      <note number="5" values="1" ticks="217" durationTicks="25" ppq="96" velocity="0.906"/>
      <note number="6" values="1" ticks="240" durationTicks="50" ppq="96" velocity="0.906"/>
      <note number="7" values="1" ticks="503" durationTicks="48" ppq="96" velocity="0.906"/>
      <note number="8" values="1" ticks="575" durationTicks="50" ppq="96" velocity="0.906"/>
      <note number="9" values="1" ticks="624" durationTicks="49" ppq="96" velocity="0.906"/>
      <note number="10" values="1" ticks="672" durationTicks="95" ppq="96" velocity="0.906"/>
    </notes>
  </exercise>
  <exercise number="9">
    <scale>minor</scale>
    <bpm>68</bpm>
    <lowestNote>85</lowestNote>
    <tonalities>6</tonalities>
    <video name="9t.mp4" size="1883407" type="video/mp4" volume="0.5">c3810e521737fd1b39c629fc21e7f179f1f4069749600e4e25715c65adf4dc28</video>
    <notes>
      <note number="1" values="1" ticks="47" durationTicks="50" ppq="96" velocity="0.843"/>
      <note number="2" values="1" ticks="143" durationTicks="47" ppq="96" velocity="0.906"/>
      <note number="3" values="1" ticks="192" durationTicks="23" ppq="96" velocity="0.906"/>
      <note number="4" values="1" ticks="215" durationTicks="25" ppq="96" velocity="0.906"/>
      <note number="5" values="1" ticks="240" durationTicks="25" ppq="96" velocity="0.906"/>
      <note number="6" values="1" ticks="479" durationTicks="50" ppq="96" velocity="0.906"/>
      <note number="7" values="1" ticks="527" durationTicks="48" ppq="96" velocity="0.906"/>
      <note number="8" values="1" ticks="575" durationTicks="50" ppq="96" velocity="0.906"/>
      <note number="9" values="1" ticks="624" durationTicks="49" ppq="96" velocity="0.906"/>
    </notes>
  </exercise>
  <exercise number="10">
    <scale>minor</scale>
    <bpm>68</bpm>
    <lowestNote>85</lowestNote>
    <tonalities>6</tonalities>
    <video name="10t.mp4" size="2187904" type="video/mp4" volume="0.5">21dcca5e73cbad33ca4cc263e48ea6ddbb3b6ed13d6b4db3cb6f03ff2207d776</video>
    <notes>
      <note number="1" values="1" ticks="96" durationTicks="50" ppq="96" velocity="0.843"/>
      <note number="2" values="1" ticks="144" durationTicks="25" ppq="96" velocity="0.906"/>
      <note number="3" values="1" ticks="169" durationTicks="23" ppq="96" velocity="0.906"/>
      <note number="4" values="1" ticks="192" durationTicks="25" ppq="96" velocity="0.906"/>
      <note number="5" values="1" ticks="217" durationTicks="47" ppq="96" velocity="0.906"/>
      <note number="6" values="1" ticks="550" durationTicks="23" ppq="96" velocity="0.906"/>
      <note number="7" values="1" ticks="576" durationTicks="43" ppq="96" velocity="0.906"/>
      <note number="8" values="1" ticks="623" durationTicks="49" ppq="96" velocity="0.906"/>
      <note number="9" values="1" ticks="672" durationTicks="44" ppq="96" velocity="0.906"/>
      <note number="10" values="1" ticks="721" durationTicks="95" ppq="96" velocity="0.906"/>
    </notes>
  </exercise>
  <exercise number="11">
    <scale>minor</scale>
    <bpm>68</bpm>
    <lowestNote>85</lowestNote>
    <tonalities>6</tonalities>
    <video name="11t.mp4" size="1257369" type="video/mp4" volume="0.5">8189891d2b95e74ef96fd8fe0dee8c92bb7e5e770df7ddba738d54f56921f9eb</video>
    <notes>
      <note number="1" values="1" ticks="47" durationTicks="50" ppq="96" velocity="0.843"/>
      <note number="2" values="1" ticks="143" durationTicks="47" ppq="96" velocity="0.906"/>
      <note number="3" values="1" ticks="192" durationTicks="23" ppq="96" velocity="0.906"/>
      <note number="4" values="1" ticks="240" durationTicks="25" ppq="96" velocity="0.906"/>
      <note number="5" values="1" ticks="265" durationTicks="25" ppq="96" velocity="0.906"/>
      <note number="6" values="1" ticks="288" durationTicks="50" ppq="96" velocity="0.906"/>
      <note number="7" values="1" ticks="408" durationTicks="27" ppq="96" velocity="0.906"/>
      <note number="8" values="1" ticks="432" durationTicks="50" ppq="96" velocity="0.906"/>
      <note number="9" values="1" ticks="481" durationTicks="49" ppq="96" velocity="0.906"/>
    </notes>
  </exercise>
</level>
